# xmcd CD database file
#
# Track frame offsets:
#	182
#	24737
#	67982
#	87212
#	102112
#	133912
#	179457
#	206367
#	255920
#	275937
#
# Disc length: 3971 seconds
#
# Revision: 0
# Processed by: cddbd v1.5.2PL0 Copyright (c) Steve Scherf et al.
# Submitted via: CDex 1.60beta1-cs1
#
DISCID=8b0f810a
DTITLE=JAZZオムニバス - JAZZ　BEST　SELECTION
DYEAR=1900
DGENRE=Jazz
TTITLE0=テイクファイブ
TTITLE1=モーニン
TTITLE2=ワークソング
TTITLE3=オンアスローボートトゥチャイナ
TTITLE4=ワルツフォーデビィ
TTITLE5=モリタート
TTITLE6=ラウンドミッドナイト
TTITLE7=枯葉
TTITLE8=クレオパトラの夢
TTITLE9=キャラバン
EXTD=
EXTT0=
EXTT1=
EXTT2=
EXTT3=
EXTT4=
EXTT5=
EXTT6=
EXTT7=
EXTT8=
EXTT9=
PLAYORDER=
